<svg width="70" height="75" viewBox="0 0 70 75" fill="none" xmlns="http://www.w3.org/2000/svg">
<path d="M31.0018 74.5C43.4018 74.5 45.1685 63.5 44.5018 58C45.1679 59 48 61 54 61C61.5 61 70 54 70 44C70 36 63.3333 32.3333 60 31.5C61.6667 30.6667 65 27.3 65 20.5C65 12 57 6 50 6C44.4 6 40.3333 8.66667 39 10C39 6.5 35.5 0 26 0C16.5 0 11.5 6 11.5 13.5C11.5 19.5 12.8333 22.3333 13.5 23C13.1667 22.6667 11.9 22 9.5 22C6.5 22 0 24.5 0 36.5C0 52.9 12 56.6667 18 56.5C17.3339 57.3333 16.0018 59.7 16.0018 62.5C16.0018 66 15.5018 74.5 31.0018 74.5Z" fill="#FFCB41"/>
</svg>
